<svg width="15" height="15" viewBox="0 0 15 15" fill="none" xmlns="http://www.w3.org/2000/svg">
<path d="M7.64162 5.19366C9.07581 5.19366 10.2384 4.03102 10.2384 2.59683C10.2384 1.16264 9.07581 0 7.64162 0C6.20743 0 5.04479 1.16264 5.04479 2.59683C5.04479 4.03102 6.20743 5.19366 7.64162 5.19366Z" fill="white"/>
<path d="M9.9347 5.42981H8.07371C8.23884 5.58896 8.0352 6.12629 7.90001 6.42405C7.63648 6.37699 7.36439 6.38127 7.1 6.43518C6.96738 6.13742 6.75604 5.59067 6.92203 5.42981H5.11324C1.66164 5.49228 1.78485 8.02664 1.78485 8.02664L1.78314 13.9433H1.78656C1.78656 13.957 1.7857 13.9715 1.7857 13.9852C1.7857 14.5465 2.2409 15 2.80048 15C3.36091 15 3.81525 14.5474 3.81525 13.9852C3.81525 13.9715 3.81268 13.957 3.81268 13.9433H3.81525V8.46986H4.44927L4.44756 14.7673L10.5285 14.7775L10.5268 8.44419H11.1865V13.9433H11.1882C11.1882 13.9433 11.1882 13.9467 11.1882 13.9501C11.1882 14.5097 11.6425 14.9649 12.2047 14.9649C12.7625 14.9649 13.2169 14.5106 13.2169 13.9501C13.2169 13.9467 13.2169 13.9433 13.2169 13.9433V8.02664C12.9919 5.3896 9.9347 5.42981 9.9347 5.42981ZM7.5184 12.2166L6.85187 11.3824L7.18813 6.98363C7.39177 6.94684 7.6014 6.94427 7.80846 6.97508L7.81702 7.06663L7.97873 9.19457L8.14558 11.3824L7.5184 12.2166Z" fill="white"/>
</svg>
